PathFileType	4	(X/Y/Z)	D:\TRACE\v60_Jaco2_6-2-23\JustBodyDRS_Motion2_6-v60.trc
DataRate	CameraRate	NumFrames	NumMarkers	Units	OrigDataRate	OrigDataStartFrame	OrigNumFrames
100.00	100.00	      34	9	mm	100.00	5056	      6741
Frame#	Time	front left toe			Front right toe			aft left toe			aft right toe			Arm			FL body			FR body			AL Body			AR Body			
		X1	Y1	Z1	X2	Y2	Z2	X3	Y3	Z3	X4	Y4	Z4	X5	Y5	Z5	X6	Y6	Z6	X7	Y7	Z7	X8	Y8	Z8	X9	Y9	Z9	

5056	50.550	-109.28510	39.66637	-199.42149	215.45062	152.80475	-221.79442	-165.29906	89.33609	394.67844	281.42691	-18.41504	426.74442	-46.03979	1227.32080	-280.07254	-9.70253	598.15887	-326.98181	150.91519	600.76233	-327.47290	-5.09448	519.02307	616.36792	152.37004	516.37689	616.09686	
5057	50.560	-109.59229	39.67287	-199.40068	218.97984	158.69586	-218.11304	-160.58891	95.80251	398.52649	281.00787	-18.75197	426.92734	-45.00518	1227.84717	-277.55139	-9.34328	598.53516	-325.66714	150.92401	600.99048	-326.09174	-4.03139	517.87872	617.60675	154.70621	514.97595	617.47791	
5058	50.570	-110.46969	40.07161	-199.08272	222.37190	161.90933	-214.07816	-155.75385	101.12176	402.32059	280.91602	-19.12241	427.22540	-43.33250	1228.29675	-274.97482	-9.38910	598.81580	-324.06421	151.18758	600.95740	-324.95932	-2.65493	516.56586	618.82220	155.00642	513.49866	618.77759	
5059	50.580	-111.15734	40.30072	-198.87750	226.77589	162.89629	-210.17943	-150.54799	103.08308	407.18814	280.74167	-19.44291	427.31610	-43.15792	1228.70313	-272.00345	-9.10712	598.98376	-322.44022	151.03938	600.81305	-323.63519	-1.77151	515.64050	620.22687	156.12489	512.25684	619.70880	
5060	50.590	-111.71040	40.12275	-198.42282	230.82820	160.98509	-205.71765	-146.14450	100.69907	412.44794	280.43579	-19.69763	427.42828	-42.55965	1228.92810	-269.11227	-9.03362	598.71149	-321.13260	150.85492	600.40131	-322.02545	-0.09190	514.63507	621.88788	157.67693	511.32611	621.07843	
5061	50.600	-111.86051	39.82203	-198.31029	234.76636	156.94876	-201.43225	-142.22581	96.24448	418.28613	279.17038	-20.07167	427.40964	-41.79848	1229.09338	-267.17087	-9.00940	598.89612	-319.57709	151.09523	600.48871	-321.12189	0.69563	514.03650	623.07629	158.55911	510.63443	622.34167	
5062	50.610	-112.67833	40.18330	-198.08846	238.28943	151.26254	-197.44237	-137.79034	88.46999	424.49857	278.76254	-20.15713	427.55597	-40.97134	1229.31348	-265.52039	-9.56034	599.16107	-318.28119	150.76181	600.30579	-319.73602	1.73212	513.62659	624.17029	159.51640	509.68054	623.34906	
5063	50.620	-113.29553	40.47807	-198.01053	241.79262	144.68558	-193.08589	-134.60007	82.14312	429.50192	278.16571	-20.40948	427.59457	-40.27230	1229.32971	-264.14682	-9.61967	599.49463	-316.77887	150.44962	600.37360	-318.96970	2.63026	512.81372	625.71411	160.41710	509.01685	624.61865	
5064	50.630	-113.86933	40.62909	-197.89513	244.64142	136.33119	-189.16827	-130.81221	74.89378	434.34363	277.73404	-20.67724	427.68900	-39.34823	1228.96606	-262.96713	-9.71644	599.25812	-315.75787	150.14580	600.13989	-317.35858	3.28121	512.39264	626.59302	160.94496	508.49692	625.70398	
5065	50.640	-114.08576	40.17862	-197.87492	248.37061	127.09989	-185.08018	-126.01553	66.11626	439.45169	277.15640	-20.78273	427.82993	-38.76094	1228.82141	-261.94073	-10.17375	599.16364	-314.39102	149.86708	599.97797	-316.64731	3.54640	512.04626	627.79138	161.63896	508.31610	626.59656	
5066	50.650	-114.76044	39.95176	-197.66902	251.33421	116.50963	-181.03372	-120.89317	56.79161	444.56723	276.32855	-20.76386	427.86978	-39.35672	1228.66333	-260.32111	-10.39029	598.86438	-313.39340	149.42606	599.69690	-315.38058	4.29483	511.80331	629.11743	162.50203	508.15088	627.59491	
5067	50.660	-115.55270	40.08318	-197.38742	254.86459	105.17046	-176.87306	-116.53944	47.06557	449.48895	275.79010	-20.69139	427.87665	-39.49887	1228.84521	-259.26871	-10.49331	598.40833	-312.06848	149.15678	599.76099	-314.83707	4.19406	511.83154	629.81476	162.93015	507.96564	628.36591	
5068	50.670	-116.12914	40.26735	-197.42561	258.18698	93.14499	-172.88266	-113.74216	36.94841	454.17361	275.11523	-20.70270	427.91748	-40.62945	1228.88965	-258.00137	-11.71100	598.92468	-311.61359	148.68497	599.72839	-314.26086	5.07309	511.44843	630.98334	163.47882	507.89075	629.21368	
5069	50.680	-116.94484	40.51651	-197.44447	260.62152	81.31075	-169.32938	-109.31107	24.79016	459.10696	274.30984	-20.81374	427.97394	-41.26717	1228.59546	-257.33368	-12.37836	598.83887	-310.72162	147.81105	599.84021	-313.34360	5.37675	511.23523	631.33582	163.78572	507.74896	629.85803	
5070	50.690	-117.84096	40.72455	-197.29781	262.67889	70.99815	-167.93782	-107.21462	13.46406	462.71600	273.63083	-20.95146	427.93610	-42.70157	1228.40796	-256.57272	-13.20114	598.87262	-310.05811	146.73041	599.95380	-312.93234	5.66934	510.87970	631.83661	164.04396	507.40128	630.22546	
5071	50.700	-118.54324	40.37138	-197.09917	263.74893	60.82530	-167.54034	-105.94711	3.26312	463.93741	273.09131	-20.97398	427.79303	-43.67923	1228.16199	-255.62077	-13.96032	598.58282	-309.57376	145.78265	599.96899	-312.90924	5.87730	510.17776	632.63159	164.27498	507.08334	630.51154	
5072	50.710	-119.11464	40.27123	-197.12665	264.78375	51.91308	-168.40070	-105.04874	-6.05799	463.47525	272.52234	-20.88418	427.87091	-45.58171	1228.14185	-255.07732	-15.28987	598.68097	-309.02802	144.93413	600.07306	-312.79791	5.89415	509.91095	632.80664	161.46449	505.18863	628.80542	
5073	50.720	-119.87198	40.23012	-197.15843	263.52795	43.62306	-170.73450	-104.30604	-14.66447	461.80719	271.55881	-20.75634	427.82275	-47.48137	1228.14124	-254.18620	-16.12971	598.52911	-308.81339	143.82956	600.15405	-312.58627	6.12288	509.15799	633.26270	161.20511	505.04703	628.84607	
5074	50.730	-120.92596	40.18899	-196.88310	261.86179	38.68201	-174.07466	-104.67226	-22.06248	459.17993	270.96265	-20.48742	427.71945	-49.86325	1227.98096	-253.30429	-18.08932	598.84167	-308.64819	142.19116	600.57440	-312.33444	6.32139	508.72021	633.12592	161.68770	504.50974	628.75903	
5075	50.740	-121.59612	39.91051	-196.93494	261.07416	37.28358	-173.76253	-105.48846	-24.68772	456.01776	270.08615	-20.64022	427.60086	-50.48227	1229.35144	-253.91254	-18.71342	598.82446	-308.66843	141.03554	601.26520	-312.70544	6.30982	507.49142	633.18866	161.71562	503.90900	628.63086	
5076	50.750	-121.92855	39.48815	-197.24445	261.34583	36.70511	-175.27193	-106.74396	-25.39616	458.55923	269.29938	-20.43658	427.47537	-53.77811	1229.24133	-252.39563	-20.54574	599.01941	-308.41455	140.01025	601.36548	-312.89194	5.90697	508.07928	633.23273	161.34306	504.54965	628.38861	
5077	50.760	-122.66663	39.52306	-197.02455	260.40955	37.26524	-173.81528	-111.21690	-22.66646	456.39337	268.19907	-19.68799	427.27927	-56.40361	1229.50757	-251.64175	-22.13541	599.13446	-308.49573	137.77824	601.63324	-312.84622	5.95340	510.15927	632.99084	161.02696	506.21973	628.04175	
5078	50.770	-123.76494	40.32035	-196.76755	258.47003	37.45369	-172.90826	-109.79232	-24.42736	457.62820	267.71994	-18.11358	426.90781	-60.21836	1229.83618	-252.58981	-24.30682	599.46173	-308.51242	135.73593	602.10834	-313.61765	6.14210	512.19989	632.97729	161.43152	508.16748	627.68140	
5079	50.780	-122.84389	44.43791	-198.35303	257.15945	37.24948	-172.78156	-110.47552	-24.73242	460.10983	265.11371	-14.13410	425.14734	-62.18245	1230.10510	-253.57932	-26.83566	600.29901	-308.66315	133.58490	603.03827	-314.07950	6.10323	512.91058	633.09332	161.82565	508.81140	627.27051	
5080	50.790	-120.97248	48.18033	-195.54276	256.13425	37.06254	-173.08519	-111.90254	-24.50924	458.05600	260.83984	-10.58880	429.11487	-65.70493	1230.73389	-255.45853	-29.06273	601.67255	-308.90552	131.27414	604.25146	-314.40158	6.43476	512.35852	632.71002	161.94823	508.67560	626.54425	
5081	50.800	-117.95256	55.27490	-193.47572	255.35008	36.48658	-173.57188	-112.14146	-24.85357	458.85001	256.86349	-4.73228	430.27017	-66.43285	1231.20349	-256.04276	-30.57415	602.27100	-309.83942	129.32726	604.95935	-315.95413	6.26659	512.64685	631.42395	162.04303	508.62625	625.42426	
5082	50.810	-118.46664	65.10796	-194.44962	254.48201	35.70401	-174.22377	-112.70126	-24.32817	458.84866	254.12103	6.17162	428.29874	-67.25891	1231.63538	-256.14426	-32.43246	602.33276	-310.76187	127.34296	605.11993	-316.90179	6.08125	512.71271	630.75891	161.98927	509.00595	624.11462	
5083	50.820	-121.07040	76.18168	-194.92943	253.74748	35.23136	-174.56760	-114.08188	-23.57804	458.34320	253.83310	18.49985	425.84012	-68.17755	1232.05200	-255.80841	-34.26632	602.01654	-311.87280	125.99793	605.10510	-318.17444	5.68529	512.94385	629.42267	161.48659	509.60208	622.88208	
5084	50.830	-125.54284	88.71731	-198.16458	252.90529	35.01979	-174.67033	-114.61664	-23.31663	458.53857	255.75807	31.60782	421.51645	-70.13828	1232.45483	-256.55743	-35.30625	602.23608	-312.98090	124.89384	605.19781	-319.83475	4.90121	512.87689	628.12714	160.87332	509.49625	621.66437	
5085	50.840	-129.42288	101.68990	-200.20334	251.77010	34.55071	-175.00458	-115.85011	-22.93533	458.34515	259.02771	45.30071	418.53662	-71.87601	1232.67505	-257.28714	-36.21251	602.40222	-314.13889	123.69278	605.25195	-320.71637	4.00807	511.92950	627.07190	160.33299	508.72971	620.35382	
5086	50.850	-133.29428	114.63626	-201.64078	251.07549	34.35196	-175.29062	-117.14484	-22.57943	458.06442	260.46344	57.84972	414.95013	-73.33398	1232.41296	-258.79684	-37.25830	602.49597	-315.45624	122.47332	605.30255	-321.98355	2.96961	511.34488	625.82703	158.89725	507.79361	618.94629	
5087	50.860	-136.70387	127.06541	-202.95444	249.10387	33.75338	-175.79538	-117.70739	-22.11989	457.87393	261.79575	69.98729	412.30576	-74.09911	1231.84375	-260.06799	-38.46795	602.60028	-316.69821	121.69187	605.40051	-323.38391	2.05931	510.47461	624.07965	157.95302	507.10730	617.55762	
5088	50.870	-139.00932	137.91495	-203.90536	248.25064	33.43316	-176.16568	-118.71283	-21.68082	457.60107	260.42221	80.70934	409.47678	-73.90955	1231.52319	-261.29550	-39.45557	602.55396	-318.04807	120.40978	605.10315	-324.49060	1.28471	510.70535	622.97626	157.67944	507.02771	616.32184	
5089	50.880	-142.10484	148.65207	-204.91214	248.19949	33.30981	-176.26387	-119.84918	-20.87070	457.45609	258.03412	90.47120	407.14063	-74.34602	1231.59778	-262.61487	-40.45209	602.50043	-319.44931	119.64818	605.15826	-326.29239	0.48152	510.65015	621.39124	156.77563	506.84158	614.96582	
